<svg width="18" height="18" viewBox="0 0 18 18" fill="none" xmlns="http://www.w3.org/2000/svg">
<path d="M13.6404 12.4345L17.2096 16.0028L16.0304 17.182L12.4621 13.6128C11.1344 14.6772 9.48292 15.2561 7.78125 15.2537C3.64125 15.2537 0.28125 11.8937 0.28125 7.75366C0.28125 3.61366 3.64125 0.253662 7.78125 0.253662C11.9213 0.253662 15.2813 3.61366 15.2813 7.75366C15.2837 9.45533 14.7048 11.1068 13.6404 12.4345ZM11.9688 11.8162C13.0263 10.7286 13.617 9.27069 13.6146 7.75366C13.6146 4.53033 11.0038 1.92033 7.78125 1.92033C4.55792 1.92033 1.94792 4.53033 1.94792 7.75366C1.94792 10.9762 4.55792 13.587 7.78125 13.587C9.29827 13.5894 10.7562 12.9988 11.8438 11.9412L11.9688 11.8162Z" fill="#CBD5E0"/>
</svg>
