<svg width="37" height="37" viewBox="0 0 37 37" fill="none" xmlns="http://www.w3.org/2000/svg">
<path d="M18.6426 9.14844V6.14844M18.6426 9.14844C17.8469 9.14844 17.0839 9.46451 16.5213 10.0271C15.9586 10.5897 15.6426 11.3528 15.6426 12.1484C15.6426 12.9441 15.9586 13.7071 16.5213 14.2698C17.0839 14.8324 17.8469 15.1484 18.6426 15.1484M18.6426 9.14844C19.4382 9.14844 20.2013 9.46451 20.7639 10.0271C21.3265 10.5897 21.6426 11.3528 21.6426 12.1484C21.6426 12.9441 21.3265 13.7071 20.7639 14.2698C20.2013 14.8324 19.4382 15.1484 18.6426 15.1484M18.6426 15.1484V30.1484M9.64258 27.1484C10.4382 27.1484 11.2013 26.8324 11.7639 26.2698C12.3265 25.7071 12.6426 24.9441 12.6426 24.1484C12.6426 23.3528 12.3265 22.5897 11.7639 22.0271C11.2013 21.4645 10.4382 21.1484 9.64258 21.1484M9.64258 27.1484C8.84693 27.1484 8.08387 26.8324 7.52126 26.2698C6.95865 25.7071 6.64258 24.9441 6.64258 24.1484C6.64258 23.3528 6.95865 22.5897 7.52126 22.0271C8.08387 21.4645 8.84693 21.1484 9.64258 21.1484M9.64258 27.1484V30.1484M9.64258 21.1484V6.14844M27.6426 27.1484C28.4382 27.1484 29.2013 26.8324 29.7639 26.2698C30.3265 25.7071 30.6426 24.9441 30.6426 24.1484C30.6426 23.3528 30.3265 22.5897 29.7639 22.0271C29.2013 21.4645 28.4382 21.1484 27.6426 21.1484M27.6426 27.1484C26.8469 27.1484 26.0839 26.8324 25.5213 26.2698C24.9586 25.7071 24.6426 24.9441 24.6426 24.1484C24.6426 23.3528 24.9586 22.5897 25.5213 22.0271C26.0839 21.4645 26.8469 21.1484 27.6426 21.1484M27.6426 27.1484V30.1484M27.6426 21.1484V6.14844" stroke="#232325" stroke-width="2" stroke-linecap="round" stroke-linejoin="round"/>
</svg>
