<svg width="36" height="36" viewBox="0 0 36 36" fill="none" xmlns="http://www.w3.org/2000/svg">
<path d="M4.5 18L7.5 15M7.5 15L18 4.5L28.5 15M7.5 15V30C7.5 30.3978 7.65804 30.7794 7.93934 31.0607C8.22064 31.342 8.60218 31.5 9 31.5H13.5M28.5 15L31.5 18M28.5 15V30C28.5 30.3978 28.342 30.7794 28.0607 31.0607C27.7794 31.342 27.3978 31.5 27 31.5H22.5M13.5 31.5C13.8978 31.5 14.2794 31.342 14.5607 31.0607C14.842 30.7794 15 30.3978 15 30V24C15 23.6022 15.158 23.2206 15.4393 22.9393C15.7206 22.658 16.1022 22.5 16.5 22.5H19.5C19.8978 22.5 20.2794 22.658 20.5607 22.9393C20.842 23.2206 21 23.6022 21 24V30C21 30.3978 21.158 30.7794 21.4393 31.0607C21.7206 31.342 22.1022 31.5 22.5 31.5M13.5 31.5H22.5" stroke="black" stroke-width="2" stroke-linecap="round" stroke-linejoin="round"/>
</svg>
