<svg width="37" height="36" viewBox="0 0 37 36" fill="none" xmlns="http://www.w3.org/2000/svg">
<g clip-path="url(#clip0_48_3034)">
<path d="M25.8379 29.1279V26.8779C25.8379 25.6845 25.3638 24.5399 24.5199 23.696C23.676 22.852 22.5314 22.3779 21.3379 22.3779H12.3379C11.1444 22.3779 9.99982 22.852 9.15591 23.696C8.312 24.5399 7.83789 25.6845 7.83789 26.8779V29.1279" stroke="black" stroke-width="2" stroke-linecap="round" stroke-linejoin="round"/>
<path d="M16.8379 17.8779C19.3232 17.8779 21.3379 15.8632 21.3379 13.3779C21.3379 10.8926 19.3232 8.87793 16.8379 8.87793C14.3526 8.87793 12.3379 10.8926 12.3379 13.3779C12.3379 15.8632 14.3526 17.8779 16.8379 17.8779Z" stroke="black" stroke-width="2" stroke-linecap="round" stroke-linejoin="round"/>
<path d="M32.5879 29.1279V26.8779C32.5871 25.8809 32.2553 24.9123 31.6444 24.1243C31.0336 23.3363 30.1783 22.7734 29.2129 22.5242" stroke="black" stroke-width="2" stroke-linecap="round" stroke-linejoin="round"/>
<path d="M24.7129 9.02417C25.6809 9.27201 26.5388 9.83496 27.1515 10.6243C27.7642 11.4136 28.0967 12.3844 28.0967 13.3835C28.0967 14.3827 27.7642 15.3535 27.1515 16.1428C26.5388 16.9321 25.6809 17.4951 24.7129 17.7429" stroke="black" stroke-width="2" stroke-linecap="round" stroke-linejoin="round"/>
</g>
<defs>
<clipPath id="clip0_48_3034">
<rect width="27" height="27" fill="white" transform="translate(6.71289 5.50293)"/>
</clipPath>
</defs>
</svg>
