<svg width="33" height="32" viewBox="0 0 33 32" fill="none" xmlns="http://www.w3.org/2000/svg">
<path d="M11.1654 9.33333V20C11.1654 20.7072 11.4463 21.3855 11.9464 21.8856C12.4465 22.3857 13.1248 22.6667 13.832 22.6667H21.832M11.1654 9.33333V6.66667C11.1654 5.95942 11.4463 5.28115 11.9464 4.78105C12.4465 4.28095 13.1248 4 13.832 4H19.9467C20.3003 4.00008 20.6394 4.1406 20.8894 4.39067L26.7747 10.276C27.0248 10.526 27.1653 10.8651 27.1654 11.2187V20C27.1654 20.7072 26.8844 21.3855 26.3843 21.8856C25.8842 22.3857 25.2059 22.6667 24.4987 22.6667H21.832M11.1654 9.33333H8.4987C7.79145 9.33333 7.11318 9.61428 6.61308 10.1144C6.11298 10.6145 5.83203 11.2928 5.83203 12V25.3333C5.83203 26.0406 6.11298 26.7189 6.61308 27.219C7.11318 27.719 7.79145 28 8.4987 28H19.1654C19.8726 28 20.5509 27.719 21.051 27.219C21.5511 26.7189 21.832 26.0406 21.832 25.3333V22.6667" stroke="#585858" stroke-width="2" stroke-linecap="round" stroke-linejoin="round"/>
</svg>
