<svg width="37" height="37" viewBox="0 0 37 37" fill="none" xmlns="http://www.w3.org/2000/svg">
<path d="M14.1426 8.07129H11.1426C10.3469 8.07129 9.58387 8.38736 9.02126 8.94997C8.45865 9.51258 8.14258 10.2756 8.14258 11.0713V29.0713C8.14258 29.8669 8.45865 30.63 9.02126 31.1926C9.58387 31.7552 10.3469 32.0713 11.1426 32.0713H26.1426C26.9382 32.0713 27.7013 31.7552 28.2639 31.1926C28.8265 30.63 29.1426 29.8669 29.1426 29.0713V11.0713C29.1426 10.2756 28.8265 9.51258 28.2639 8.94997C27.7013 8.38736 26.9382 8.07129 26.1426 8.07129H23.1426M14.1426 8.07129C14.1426 8.86694 14.4586 9.63 15.0213 10.1926C15.5839 10.7552 16.3469 11.0713 17.1426 11.0713H20.1426C20.9382 11.0713 21.7013 10.7552 22.2639 10.1926C22.8265 9.63 23.1426 8.86694 23.1426 8.07129M14.1426 8.07129C14.1426 7.27564 14.4586 6.51258 15.0213 5.94997C15.5839 5.38736 16.3469 5.07129 17.1426 5.07129H20.1426C20.9382 5.07129 21.7013 5.38736 22.2639 5.94997C22.8265 6.51258 23.1426 7.27564 23.1426 8.07129M18.6426 18.5713H23.1426M18.6426 24.5713H23.1426M14.1426 18.5713H14.1576M14.1426 24.5713H14.1576" stroke="#232325" stroke-width="2" stroke-linecap="round" stroke-linejoin="round"/>
</svg>
