<svg width="21" height="21" viewBox="0 0 21 21" fill="none" xmlns="http://www.w3.org/2000/svg">
<g clip-path="url(#clip0_176_1481)">
<path d="M17.635 3.31611L17.2633 3.41778C17.0772 3.04556 16.8406 2.84278 16.2489 2.84278H10.6794V17.9422C10.6794 18.5533 10.95 18.7706 11.3217 18.7706L11.3956 19.075H7.78444L7.85833 18.7706C8.21333 18.7706 8.51778 18.5339 8.51778 17.9422V2.84444H2.96278C2.38833 2.84444 2.06722 3.08111 1.93167 3.41944L1.56 3.31611L2.10111 1C2.23611 1.05111 2.54056 1.08444 2.99667 1.08444H16.3506C16.6039 1.08444 16.9589 1.05111 17.0939 1L17.635 3.31611ZM15.635 16.9156C14.0939 16.9156 12.1717 16.86 11.6906 16.8044V16.4606C12.0617 16.4606 12.3017 16.2072 12.3017 15.8817V5.10444C12.3017 4.74278 12.06 4.50778 11.6906 4.50778V4.14611C12.2844 4.09056 14.2628 4.01944 15.5994 4.01944C18.4589 4.01944 20 5.53833 20 10.1156C20 14.8006 18.7189 16.9172 15.6367 16.9172L15.635 16.9156ZM16.0239 5.88056C15.7639 5.88056 14.6767 5.88056 14.5656 5.89889V15.0539C14.6767 15.0717 15.7828 15.0717 15.9122 15.0717C17.1006 15.0717 17.6578 13.6789 17.6578 10.1156C17.6606 6.76889 16.955 5.88222 16.0267 5.88222L16.0239 5.88056ZM7.51611 4.52444V4.16278C7.51611 4.16278 6.04944 4.17333 4.87889 4.17111C4.87889 4.17111 4.62333 4.46667 4.62333 5.195V14.205C4.62333 14.9272 4.10333 15.2722 3.49056 15.2722C2.915 15.2722 2.37667 14.9828 2.37667 14.205V5.195C2.37667 4.74278 2.63667 4.50722 2.98778 4.50722V4.16389H0.5C0.5 4.16389 0.13 4.51278 0.13 5.195V14.4206C0.13 14.9089 0.111111 15.1622 0 15.47C0.611111 16.2111 1.745 17.1156 3.49056 17.1156C5.03167 17.1156 7.03333 16.8794 7.51611 16.825V16.4828C7.145 16.4828 6.905 16.2294 6.905 15.9039V5.12167C6.90333 4.76056 7.145 4.52444 7.51611 4.52444Z" fill="#F4792A"/>
</g>
<defs>
<clipPath id="clip0_176_1481">
<rect width="20" height="20" fill="white" transform="translate(0.5 0.5)"/>
</clipPath>
</defs>
</svg>
