<svg width="17" height="17" viewBox="0 0 17 17" fill="none" xmlns="http://www.w3.org/2000/svg">
<path fill-rule="evenodd" clip-rule="evenodd" d="M5.04811 2.36038C5.69137 2.30902 6.30202 2.05601 6.79311 1.63738C7.34777 1.16497 8.05254 0.905518 8.78111 0.905518C9.50968 0.905518 10.2144 1.16497 10.7691 1.63738C11.2602 2.05601 11.8709 2.30902 12.5141 2.36038C13.2405 2.41843 13.9225 2.73334 14.4378 3.24864C14.9531 3.76395 15.2681 4.44595 15.3261 5.17238C15.3771 5.81538 15.6301 6.42638 16.0491 6.91738C16.5215 7.47204 16.781 8.1768 16.781 8.90538C16.781 9.63395 16.5215 10.3387 16.0491 10.8934C15.6305 11.3845 15.3775 11.9951 15.3261 12.6384C15.2681 13.3648 14.9531 14.0468 14.4378 14.5621C13.9225 15.0774 13.2405 15.3923 12.5141 15.4504C11.8709 15.5017 11.2602 15.7547 10.7691 16.1734C10.2144 16.6458 9.50968 16.9052 8.78111 16.9052C8.05254 16.9052 7.34777 16.6458 6.79311 16.1734C6.30202 15.7547 5.69137 15.5017 5.04811 15.4504C4.32168 15.3923 3.63968 15.0774 3.12438 14.5621C2.60907 14.0468 2.29417 13.3648 2.23611 12.6384C2.18475 11.9951 1.93174 11.3845 1.51311 10.8934C1.0407 10.3387 0.78125 9.63395 0.78125 8.90538C0.78125 8.1768 1.0407 7.47204 1.51311 6.91738C1.93174 6.42629 2.18475 5.81564 2.23611 5.17238C2.29417 4.44595 2.60907 3.76395 3.12438 3.24864C3.63968 2.73334 4.32168 2.41843 5.04811 2.36038ZM12.4881 7.61238C12.6703 7.42378 12.7711 7.17117 12.7688 6.90898C12.7665 6.64678 12.6613 6.39597 12.4759 6.21056C12.2905 6.02515 12.0397 5.91998 11.7775 5.9177C11.5153 5.91542 11.2627 6.01622 11.0741 6.19838L7.78111 9.49138L6.48811 8.19838C6.29951 8.01622 6.0469 7.91543 5.78471 7.9177C5.52251 7.91998 5.2717 8.02515 5.08629 8.21056C4.90088 8.39597 4.79571 8.64678 4.79344 8.90898C4.79116 9.17117 4.89195 9.42377 5.07411 9.61238L7.07411 11.6124C7.26164 11.7998 7.51595 11.9052 7.78111 11.9052C8.04627 11.9052 8.30058 11.7998 8.48811 11.6124L12.4881 7.61238Z" fill="#232325"/>
</svg>
