<svg width="18" height="18" viewBox="0 0 18 18" fill="none" xmlns="http://www.w3.org/2000/svg">
<path d="M12.2266 3.2275C12.3927 3.05558 12.5913 2.91845 12.8109 2.82411C13.0305 2.72978 13.2667 2.68012 13.5057 2.67805C13.7447 2.67597 13.9817 2.72151 14.2029 2.81202C14.4241 2.90252 14.6251 3.03618 14.7941 3.20519C14.9631 3.37419 15.0968 3.57517 15.1873 3.79638C15.2778 4.01759 15.3233 4.25462 15.3213 4.49362C15.3192 4.73262 15.2695 4.96882 15.1752 5.18843C15.0809 5.40803 14.9437 5.60665 14.7718 5.7727L14.0581 6.4864L11.5129 3.9412L12.2266 3.2275ZM10.2403 5.2138L2.69922 12.7549V15.3001H5.24442L12.7864 7.759L10.2394 5.2138H10.2403Z" fill="#585858"/>
</svg>
