<svg width="37" height="37" viewBox="0 0 37 37" fill="none" xmlns="http://www.w3.org/2000/svg">
<path d="M18.6426 21.4971L32.1426 13.9971L18.6426 6.49707L5.14258 13.9971L18.6426 21.4971Z" stroke="#232325"/>
<path d="M18.642 21.497L27.882 16.364C29.0977 19.4511 29.4428 22.8128 28.8795 26.0825C25.0748 26.4518 21.4878 28.0274 18.642 30.5795C15.7965 28.0277 12.2101 26.4521 8.40596 26.0825C7.84226 22.8128 8.18731 19.4511 9.40346 16.364L18.642 21.497Z" stroke="#232325"/>
<path d="M18.6426 21.4971L32.1426 13.9971L18.6426 6.49707L5.14258 13.9971L18.6426 21.4971ZM18.6426 21.4971L27.8826 16.3641C29.0984 19.4512 29.4434 22.8128 28.8801 26.0826C25.0754 26.4518 21.4884 28.0275 18.6426 30.5796C15.7972 28.0278 12.2107 26.4522 8.40658 26.0826C7.84288 22.8128 8.18793 19.4511 9.40408 16.3641L18.6426 21.4971ZM12.6426 30.4971V19.2471L18.6426 15.9141" stroke="#232325" stroke-width="2" stroke-linecap="round" stroke-linejoin="round"/>
</svg>
